<svg width="800" height="400" viewBox="0 0 800 400" xmlns="http://www.w3.org/2000/svg">
  <title>Restaurant Reservation System</title>
  <rect width="800" height="400" fill="#1E1E1E" />
  <rect x="100" y="50" width="600" height="300" rx="10" fill="#272727" />
  <rect x="150" y="100" width="200" height="200" rx="5" fill="#374151" />
  <circle cx="250" cy="150" r="30" fill="#4B5563" />
  <circle cx="310" cy="200" r="30" fill="#4B5563" />
  <circle cx="190" cy="200" r="30" fill="#4B5563" />
  <rect x="380" y="100" width="270" height="40" rx="5" fill="#4B5563" />
  <rect x="380" y="160" width="270" height="60" rx="5" fill="#6B7280" />
  <rect x="380" y="240" width="150" height="40" rx="5" fill="#1E40AF" />
  <text x="455" y="265" font-family="Arial" font-size="14" fill="white" text-anchor="middle">Book Now</text>
  
  <!-- Table with chairs -->
  <rect x="220" y="170" width="60" height="30" rx="5" fill="#6B7280" />
  <circle cx="210" cy="170" r="10" fill="#6B7280" />
  <circle cx="290" cy="170" r="10" fill="#6B7280" />
  <circle cx="210" cy="200" r="10" fill="#6B7280" />
  <circle cx="290" cy="200" r="10" fill="#6B7280" />
  
  <!-- Calendar icon -->
  <rect x="400" y="180" width="30" height="30" rx="5" fill="#E5E7EB" />
  <rect x="407" y="170" width="5" height="10" fill="#E5E7EB" />
  <rect x="417" y="170" width="5" height="10" fill="#E5E7EB" />
  <line x1="400" y1="190" x2="430" y2="190" stroke="#272727" stroke-width="2" />
  <text x="415" y="205" font-family="Arial" font-size="10" fill="#272727" text-anchor="middle">15</text>
  
  <!-- Clock icon -->
  <circle cx="450" cy="185" r="15" fill="#E5E7EB" />
  <line x1="450" y1="175" x2="450" y2="185" stroke="#272727" stroke-width="2" />
  <line x1="450" y1="185" x2="458" y2="185" stroke="#272727" stroke-width="2" />
</svg>
