<svg width="800" height="400" viewBox="0 0 800 400" xmlns="http://www.w3.org/2000/svg">
  <title>MensFyt E-commerce Platform</title>
  <rect width="800" height="400" fill="#1E1E1E" />
  <rect x="100" y="50" width="600" height="300" rx="10" fill="#272727" />
  <rect x="150" y="100" width="200" height="200" rx="5" fill="#374151" />
  <rect x="380" y="100" width="270" height="40" rx="5" fill="#4B5563" />
  <rect x="380" y="160" width="270" height="20" rx="5" fill="#6B7280" />
  <rect x="380" y="200" width="270" height="20" rx="5" fill="#6B7280" />
  <rect x="380" y="240" width="150" height="40" rx="5" fill="#1E40AF" />

  <!-- Man Silhouette -->
  <path d="M250,150 C250,130 220,130 220,150 C220,170 220,180 210,190 L210,230 C210,240 230,240 230,230 L230,210 L240,210 L240,230 C240,240 260,240 260,230 L260,190 C250,180 250,170 250,150Z" fill="#6B7280" />
  <circle cx="235" cy="130" r="15" fill="#6B7280" />

  <!-- Shopping cart icon -->
  <circle cx="450" cy="260" r="15" fill="#E5E7EB" />
  <circle cx="490" cy="260" r="15" fill="#E5E7EB" />
  <rect x="430" y="245" width="80" height="5" fill="#E5E7EB" />
  <path d="M430,245 L420,220 L510,220 L500,245" fill="none" stroke="#E5E7EB" stroke-width="5" />
</svg>
